<?xml version="1.0" encoding="UTF-8"?>
<svg width="250px" height="147px" viewBox="0 0 250 147" version="1.1" xmlns="http://www.w3.org/2000/svg" xmlns:xlink="http://www.w3.org/1999/xlink">
    <title>logo_isea_international</title>
    <g id="boxes-amb-foto" stroke="none" stroke-width="1" fill="none" fill-rule="evenodd">
        <g id="z" transform="translate(-392.000000, -135.000000)" fill="#521AFF" fill-rule="nonzero">
            <g id="logo_isea_international" transform="translate(392.000000, 135.000000)">
                <polygon id="Path" points="0 23.4787212 0 112.8111 11.4102664 112.8111 28.3216119 89.3072763 28.3216119 0 17.1042186 0"></polygon>
                <polygon id="Path" points="44.6431566 67.4685514 44.5285508 22.9348449 61.2190704 0 112.749757 0 95.6679003 23.4787212 67.6565627 23.4787212 67.6565627 43.5937767 97.7727339 43.5937767 97.7727339 89.3072763 80.6545389 112.8111 30.845735 112.8111 47.9527489 89.3072763 75.7879848 89.3072763 75.7656227 67.4685514"></polygon>
                <polygon id="Path" points="114.507978 23.4787212 131.609401 0 189.63069 0 172.537652 23.4787212 138.058074 23.4787212 137.946264 43.5937767 179.344119 43.5937767 161.890493 67.6107959 137.993783 67.6107959 137.993783 89.3072763 169.462862 89.3072763 152.367029 112.8111 114.507978 112.8111"></polygon>
                <polygon id="Path" points="178.519517 112.8111 202.391069 0 231.104017 0 250 89.3072763 232.906962 112.8111 217.309391 44.5615976 200.238716 112.8111"></polygon>
                <g id="Group" transform="translate(0.300491, 130.084053)">
                    <polygon id="Path" points="2.45563916 0.267754482 2.45563916 16.6370363 0.33962454 16.6370363 0.33962454 0.267754482"></polygon>
                    <path d="M11.5039078,16.6370363 L11.5039078,0.267754482 L13.8239767,0.267754482 L19.0762772,8.54583057 C20.3033979,10.4619486 21.2537876,12.1911963 22.0252804,13.8674509 L22.0700046,13.845138 C21.8855172,11.6640546 21.8240214,9.66426335 21.8240214,7.11501755 L21.8240214,0.267754482 L23.833816,0.267754482 L23.833816,16.6370363 L21.6870535,16.6370363 L16.4794772,8.32828005 C15.3334191,6.50699175 14.2292899,4.6410777 13.4046871,2.86999336 L13.329215,2.89230623 C13.4550018,4.95066882 13.5081119,6.9169908 13.5081119,9.63358315 L13.5081119,16.6370363 L11.5039078,16.6370363 L11.5039078,16.6370363 Z" id="Path"></path>
                    <polygon id="Path" points="35.9932131 2.05836258 31.0008721 2.05836258 31.0008721 0.264965373 43.1434977 0.264965373 43.1434977 2.05836258 38.1287946 2.05836258 38.1287946 16.6370363 35.9932131 16.6370363"></polygon>
                    <polygon id="Path" points="58.824927 8.96419695 52.4377495 8.96419695 52.4377495 14.8631629 59.5461051 14.8631629 59.5461051 16.6370363 50.3133491 16.6370363 50.3133491 0.267754482 59.1855161 0.267754482 59.1855161 2.04999526 52.4377495 2.04999526 52.4377495 7.2210037 58.824927 7.2210037"></polygon>
                    <path d="M67.6551651,0.48251589 C68.7285464,0.267754482 70.2463745,0.133877241 71.7194785,0.133877241 C73.9808469,0.133877241 75.4427698,0.555032729 76.463041,1.48101698 C77.279258,2.21176359 77.7432718,3.32182905 77.7432718,4.59924106 C77.7432718,6.74964425 76.3931594,8.18045726 74.6573007,8.7689593 L74.6573007,8.84147614 C75.9263504,9.27378807 76.6810716,10.4452139 77.0696132,12.132625 C77.5951228,14.4280619 77.989255,16.0066977 78.3274819,16.6342472 L76.1527668,16.6342472 C75.8732404,16.168466 75.5126514,14.7571767 75.0570234,12.7322835 C74.5538759,10.4591595 73.6761631,9.61405939 71.7530217,9.53875344 L69.7655892,9.53875344 L69.7655892,16.6342472 L67.6495746,16.6342472 L67.6495746,0.48251589 L67.6551651,0.48251589 Z M69.7711797,7.94617209 L71.9375091,7.94617209 C74.2044679,7.94617209 75.6272572,6.70222939 75.6272572,4.83910445 C75.6272572,2.7305379 74.1010432,1.80176454 71.862037,1.77108434 C70.8389704,1.77108434 70.0954303,1.87149227 69.7683844,1.96632198 L69.7683844,7.94617209 L69.7711797,7.94617209 Z" id="Shape"></path>
                    <path d="M86.1011103,16.6370363 L86.1011103,0.267754482 L88.4099981,0.267754482 L93.6622986,8.54583057 C94.8894194,10.4619486 95.828628,12.1911963 96.6168923,13.8674509 L96.6672071,13.845138 C96.4715386,11.6640546 96.4212239,9.66426335 96.4212239,7.11501755 L96.4212239,0.267754482 L98.4226327,0.267754482 L98.4226327,16.6370363 L96.2646891,16.6370363 L91.0682939,8.32828005 C89.9222358,6.50699175 88.8292877,4.6410777 88.0046849,2.86999336 L87.9236222,2.89230623 C88.0549996,4.95066882 88.0969286,6.9169908 88.0969286,9.63358315 L88.0969286,16.6370363 L86.1011103,16.6370363 L86.1011103,16.6370363 Z" id="Path"></path>
                    <path d="M110.118016,11.4855517 L108.418496,16.6370363 L106.221418,16.6370363 L111.789584,0.267754482 L114.350045,0.267754482 L119.962935,16.6370363 L117.693181,16.6370363 L115.94055,11.4855517 L110.118016,11.4855517 Z M115.504489,9.83997723 L113.886032,5.11522626 C113.525442,4.05536477 113.276664,3.08475477 113.039067,2.14203586 L112.994342,2.14203586 C112.75954,3.10985675 112.480014,4.10835784 112.161354,5.0984916 L110.554077,9.84276634 L115.504489,9.84276634 L115.504489,9.83997723 Z" id="Shape"></path>
                    <polygon id="Path" points="128.958093 2.05836258 123.962957 2.05836258 123.962957 0.264965373 136.105583 0.264965373 136.105583 2.05836258 131.093675 2.05836258 131.093675 16.6370363 128.958093 16.6370363"></polygon>
                    <polygon id="Path" points="145.413811 0.267754482 145.413811 16.6370363 143.297796 16.6370363 143.297796 0.267754482"></polygon>
                    <path d="M168.480327,8.28644341 C168.480327,13.9176549 165.044948,16.9159473 160.866029,16.9159473 C156.53337,16.9159473 153.486532,13.5690162 153.486532,8.60719097 C153.486532,3.39434589 156.729038,0 161.103626,0 C165.59282,0 168.480327,3.4278152 168.480327,8.28644341 Z M155.759082,8.54304146 C155.759082,12.0433735 157.64868,15.1839104 160.977839,15.1839104 C164.343337,15.1839104 166.23014,12.0935775 166.23014,8.37848401 C166.23014,5.11522626 164.539005,1.71809126 161.011382,1.71809126 C157.492145,1.71809126 155.759082,4.95066882 155.759082,8.54304146 Z" id="Shape"></path>
                    <path d="M176.586592,16.6370363 L176.586592,0.267754482 L178.889889,0.267754482 L184.150575,8.54583057 C185.374901,10.4619486 186.32529,12.1911963 187.102374,13.8674509 L187.144303,13.845138 C186.959815,11.6640546 186.906705,9.66426335 186.906705,7.11501755 L186.906705,0.267754482 L188.908114,0.267754482 L188.908114,16.6370363 L186.761352,16.6370363 L181.55098,8.32828005 C180.407717,6.50699175 179.311974,4.6410777 178.487371,2.86999336 L178.406308,2.89230623 C178.5293,4.95066882 178.579615,6.9169908 178.579615,9.63358315 L178.579615,16.6370363 L176.586592,16.6370363 L176.586592,16.6370363 Z" id="Path"></path>
                    <path d="M200.603497,11.4855517 L198.906772,16.6370363 L196.718081,16.6370363 L202.27786,0.267754482 L204.846708,0.267754482 L210.428849,16.6370363 L208.178662,16.6370363 L206.412055,11.4855517 L200.603497,11.4855517 Z M205.981585,9.83997723 L204.371513,5.11522626 C204.010924,4.05536477 203.764941,3.08475477 203.524548,2.14203586 L203.474233,2.14203586 C203.233841,3.10985675 202.954314,4.10835784 202.646835,5.0984916 L201.039559,9.84276634 L205.981585,9.84276634 L205.981585,9.83997723 Z" id="Shape"></path>
                    <polygon id="Path" points="218.205273 0.267754482 220.324083 0.267754482 220.324083 14.8631629 227.329014 14.8631629 227.329014 16.6370363 218.205273 16.6370363"></polygon>
                </g>
                <polygon id="Path" points="205.261804 112.8111 222.354842 89.3212219 184.523743 89.3212219 184.523743 112.8111"></polygon>
            </g>
        </g>
    </g>
</svg>